<svg width="60" height="24" viewBox="0 0 60 24" fill="none" xmlns="http://www.w3.org/2000/svg">
<g clip-path="url(#clip0_16_86)">
<path fill-rule="evenodd" clip-rule="evenodd" d="M9 3H3V9H5V5H9V3ZM3 21V15H5V19H9V21H3ZM15 3V5H19V9H21V3H15ZM19 15H21V21H15V19H19V15ZM7 7H11V11H7V7ZM7 13H11V17H7V13ZM17 7H13V11H17V7ZM13 13H17V17H13V13Z" fill="#171717"/>
<path d="M35.702 16.144C35.086 16.144 34.542 16.04 34.07 15.832C33.598 15.616 33.226 15.312 32.954 14.92C32.682 14.52 32.542 14.036 32.534 13.468H34.154C34.17 13.86 34.31 14.192 34.574 14.464C34.846 14.728 35.218 14.86 35.69 14.86C36.098 14.86 36.422 14.764 36.662 14.572C36.902 14.372 37.022 14.108 37.022 13.78C37.022 13.436 36.914 13.168 36.698 12.976C36.49 12.784 36.21 12.628 35.858 12.508C35.506 12.388 35.13 12.26 34.73 12.124C34.082 11.9 33.586 11.612 33.242 11.26C32.906 10.908 32.738 10.44 32.738 9.856C32.73 9.36 32.846 8.936 33.086 8.584C33.334 8.224 33.67 7.948 34.094 7.756C34.518 7.556 35.006 7.456 35.558 7.456C36.118 7.456 36.61 7.556 37.034 7.756C37.466 7.956 37.802 8.236 38.042 8.596C38.29 8.956 38.422 9.384 38.438 9.88H36.794C36.786 9.584 36.67 9.324 36.446 9.1C36.23 8.868 35.926 8.752 35.534 8.752C35.198 8.744 34.914 8.828 34.682 9.004C34.458 9.172 34.346 9.42 34.346 9.748C34.346 10.028 34.434 10.252 34.61 10.42C34.786 10.58 35.026 10.716 35.33 10.828C35.634 10.94 35.982 11.06 36.374 11.188C36.79 11.332 37.17 11.5 37.514 11.692C37.858 11.884 38.134 12.14 38.342 12.46C38.55 12.772 38.654 13.176 38.654 13.672C38.654 14.112 38.542 14.52 38.318 14.896C38.094 15.272 37.762 15.576 37.322 15.808C36.882 16.032 36.342 16.144 35.702 16.144ZM42.6741 16.144C42.0661 16.144 41.5301 16.012 41.0661 15.748C40.6021 15.484 40.2341 15.116 39.9621 14.644C39.6981 14.172 39.5661 13.632 39.5661 13.024C39.5661 12.416 39.6981 11.876 39.9621 11.404C40.2341 10.932 40.6021 10.564 41.0661 10.3C41.5301 10.036 42.0661 9.904 42.6741 9.904C43.4341 9.904 44.0741 10.104 44.5941 10.504C45.1141 10.896 45.4461 11.44 45.5901 12.136H43.9701C43.8901 11.848 43.7301 11.624 43.4901 11.464C43.2581 11.296 42.9821 11.212 42.6621 11.212C42.2381 11.212 41.8781 11.372 41.5821 11.692C41.2861 12.012 41.1381 12.456 41.1381 13.024C41.1381 13.592 41.2861 14.036 41.5821 14.356C41.8781 14.676 42.2381 14.836 42.6621 14.836C42.9821 14.836 43.2581 14.756 43.4901 14.596C43.7301 14.436 43.8901 14.208 43.9701 13.912H45.5901C45.4461 14.584 45.1141 15.124 44.5941 15.532C44.0741 15.94 43.4341 16.144 42.6741 16.144ZM48.8054 16.144C48.2934 16.144 47.8734 16.064 47.5454 15.904C47.2174 15.736 46.9734 15.516 46.8134 15.244C46.6534 14.972 46.5734 14.672 46.5734 14.344C46.5734 13.792 46.7894 13.344 47.2214 13C47.6534 12.656 48.3014 12.484 49.1654 12.484H50.6774V12.34C50.6774 11.932 50.5614 11.632 50.3294 11.44C50.0974 11.248 49.8094 11.152 49.4654 11.152C49.1534 11.152 48.8814 11.228 48.6494 11.38C48.4174 11.524 48.2734 11.74 48.2174 12.028H46.7174C46.7574 11.596 46.9014 11.22 47.1494 10.9C47.4054 10.58 47.7334 10.336 48.1334 10.168C48.5334 9.992 48.9814 9.904 49.4774 9.904C50.3254 9.904 50.9934 10.116 51.4814 10.54C51.9694 10.964 52.2134 11.564 52.2134 12.34V16H50.9054L50.7614 15.04C50.5854 15.36 50.3374 15.624 50.0174 15.832C49.7054 16.04 49.3014 16.144 48.8054 16.144ZM49.1534 14.944C49.5934 14.944 49.9334 14.8 50.1734 14.512C50.4214 14.224 50.5774 13.868 50.6414 13.444H49.3334C48.9254 13.444 48.6334 13.52 48.4574 13.672C48.2814 13.816 48.1934 13.996 48.1934 14.212C48.1934 14.444 48.2814 14.624 48.4574 14.752C48.6334 14.88 48.8654 14.944 49.1534 14.944ZM53.4792 16V10.048H54.8352L54.9552 11.056C55.1392 10.704 55.4032 10.424 55.7472 10.216C56.0992 10.008 56.5112 9.904 56.9832 9.904C57.7192 9.904 58.2912 10.136 58.6992 10.6C59.1072 11.064 59.3112 11.744 59.3112 12.64V16H57.7752V12.784C57.7752 12.272 57.6712 11.88 57.4632 11.608C57.2552 11.336 56.9312 11.2 56.4912 11.2C56.0592 11.2 55.7032 11.352 55.4232 11.656C55.1512 11.96 55.0152 12.384 55.0152 12.928V16H53.4792Z" fill="#171717"/>
</g>
<defs>
<clipPath id="clip0_16_86">
<rect width="60" height="24" fill="white"/>
</clipPath>
</defs>
</svg>
